<svg width="992" height="159" viewBox="0 0 992 159" fill="none" xmlns="http://www.w3.org/2000/svg">
<path d="M250.915 11.1631V149.675L176.251 112.29V46.7099L250.915 11.1631Z" fill="#02FFA1"/>
<path d="M0 46.7099L0 112.29H37.3317L37.3317 46.7099H0Z" fill="#02FFA1"/>
<path d="M176.251 9.3252H37.3317V46.7099H176.251V9.3252Z" fill="#02FFA1"/>
<path d="M176.251 112.29H37.3317V149.675H176.251V112.29Z" fill="#02FFA1"/>
<path d="M333.542 155.805H292.915V15.6431H381.322V48.4121H333.542V72.5347H375.691V104.74H333.542V155.784V155.805Z" fill="#02FFA1"/>
<path d="M430.625 155.805H392.626V43.901H430.625V155.805ZM439.28 2.4436L415.004 30.7015H393.189L405.786 2.4436H439.28Z" fill="#02FFA1"/>
<path d="M485.559 155.804H447.56V11.4868H485.559V155.784V155.804Z" fill="#02FFA1"/>
<path d="M502.473 155.805V43.901H540.472V50.1249L539.533 60.672H539.909C542.787 54.1349 546.937 49.185 552.318 45.7807C557.699 42.3973 563.914 40.6847 570.942 40.6847C578.596 40.6847 584.957 42.4808 590.046 46.0522C595.135 49.6236 598.659 54.5526 600.682 60.839H601.058C603.936 54.4272 608.086 49.4774 613.467 45.9478C618.848 42.4391 625.063 40.6638 632.091 40.6638C644.625 40.6638 653.218 44.8827 657.869 53.2786C662.499 61.6953 664.834 72.3678 664.834 85.2958V155.742H626.648V87.7393C626.648 82.7269 625.897 78.696 624.395 75.6885C622.894 72.681 620.078 71.1564 615.928 71.1564C611.778 71.1564 608.712 72.9525 606.334 76.5239C603.957 80.0953 602.768 84.523 602.768 89.807V155.742H564.581V86.7995C564.581 76.3777 560.931 71.1564 553.674 71.1564C549.648 71.1564 546.458 72.9525 544.08 76.5239C541.702 80.0953 540.514 84.523 540.514 89.807V155.742H502.515L502.473 155.805Z" fill="#02FFA1"/>
<path d="M684.209 29.9496C680.831 27.318 679.121 23.0365 679.121 17.1469C679.121 11.2572 680.81 6.74596 684.209 4.05175C687.588 1.35755 692.99 0 700.393 0C707.797 0 713.366 1.35755 716.765 4.05175C720.144 6.74596 721.854 11.111 721.854 17.1469C721.854 23.1827 720.165 27.318 716.765 29.9496C713.386 32.5811 707.922 33.8969 700.393 33.8969C692.865 33.8969 687.609 32.5811 684.209 29.9496ZM719.372 155.805H681.373V43.901H719.372V155.805Z" fill="#02FFA1"/>
<path d="M745.629 144.861C737.162 135.567 732.928 122.012 732.928 104.176V94.7568C732.928 77.046 737.225 63.6168 745.817 54.4481C754.41 45.2795 767.048 40.7056 783.712 40.7056C798.645 40.7056 810.386 44.7573 818.979 52.8608C827.571 60.9643 831.93 73.1823 832.055 89.4937V90.4335H795.558V85.1495C795.308 80.1371 794.244 76.4195 792.367 74.0386C790.49 71.6576 787.591 70.4672 783.712 70.4672C775.182 70.4672 770.927 76.5657 770.927 88.7418V110.4C770.927 122.952 775.182 129.238 783.712 129.238C791.366 129.238 795.37 124.101 795.746 113.783V108.123H832.055V109.063C831.93 126.022 827.571 138.553 818.979 146.657C810.386 154.76 798.436 158.812 783.149 158.812C766.589 158.812 754.076 154.176 745.609 144.882L745.629 144.861Z" fill="#02FFA1"/>
<path d="M854.454 145.049C845.799 135.755 841.482 122.263 841.482 104.552V94.7567C841.482 77.1712 845.841 63.7629 854.559 54.5315C863.276 45.3002 876.04 40.6846 892.85 40.6846C909.659 40.6846 922.569 45.3002 931.224 54.5315C939.879 63.7629 944.196 77.1712 944.196 94.7567V104.552C944.196 122.388 939.879 135.922 931.224 145.153C922.569 154.384 909.785 159 892.85 159C875.915 159 863.13 154.363 854.475 145.069L854.454 145.049ZM905.989 110.588V89.1176C905.989 76.6909 901.588 70.4671 892.829 70.4671C884.069 70.4671 879.669 76.6909 879.669 89.1176V110.588C879.669 123.015 884.049 129.238 892.829 129.238C901.609 129.238 905.989 123.015 905.989 110.588Z" fill="#02FFA1"/>
<path d="M954.624 155.136C951.308 152.567 949.64 148.516 949.64 142.981C949.64 137.446 951.329 133.374 954.729 130.742C958.128 128.111 963.384 126.795 970.537 126.795C977.691 126.795 982.946 128.111 986.346 130.742C989.724 133.374 991.435 137.467 991.435 142.981C991.435 148.495 989.766 152.567 986.45 155.136C983.134 157.705 977.816 159 970.558 159C963.3 159 957.982 157.705 954.666 155.136H954.624Z" fill="#02FFA1"/>
</svg>
